<?xml version="1.0" encoding="UTF-8"?>
<!DOCTYPE svg PUBLIC "-//W3C//DTD SVG 1.1//EN" "http://www.w3.org/Graphics/SVG/1.1/DTD/svg11.dtd">
<!-- Creator: CorelDRAW -->
<svg xmlns="http://www.w3.org/2000/svg" xml:space="preserve" width="1729.07mm" height="946.502mm" version="1.1" style="shape-rendering:geometricPrecision; text-rendering:geometricPrecision; image-rendering:optimizeQuality; fill-rule:evenodd; clip-rule:evenodd"
viewBox="0 0 112262.44 61452.85"
 xmlns:xlink="http://www.w3.org/1999/xlink"
 xmlns:xodm="http://www.corel.com/coreldraw/odm/2003">
 <defs>
  <style type="text/css">
   <![CDATA[
    .fil0 {fill:white;fill-rule:nonzero}
   ]]>
  </style>
 </defs>
 <g id="Layer_x0020_1">
  <metadata id="CorelCorpID_0Corel-Layer"/>
  <g id="_30026354528">
   <path class="fil0" d="M100235.19 29387.53c-2126.91,0 -4020.49,-480.25 -5681.01,-1447.55 -1660.24,-967.57 -2963.82,-2298.59 -3917.54,-3993.33 -953.72,-1694.47 -1433.97,-3629.34 -1433.97,-5797.54 0,-2154.08 480.25,-4068.57 1433.97,-5742.39 953.72,-1674.1 2257.3,-2991.53 3917.54,-3952.04 1660.52,-953.72 3554.09,-1433.97 5681.01,-1433.97 2113.33,0 4000.12,480.25 5660.36,1433.97 1660.24,960.51 2963.83,2277.94 3910.75,3952.04 946.92,1673.82 1420.11,3588.31 1420.11,5742.39 0,2168.2 -473.19,4103.06 -1420.11,5797.54 -946.92,1694.74 -2250.51,3025.75 -3910.75,3993.33 -1660.24,967.3 -3547.03,1447.55 -5660.36,1447.55zm0 -2936.39c1502.42,0 2847.29,-356.93 4020.49,-1084.1 1179.99,-720.38 2106.27,-1701.53 2771.78,-2950.24 672.57,-1248.71 995.01,-2669.1 988.22,-4267.68 6.79,-1584.73 -315.65,-2991.26 -988.22,-4233.18 -665.51,-1241.92 -1591.79,-2209.22 -2771.78,-2916.02 -1173.2,-699.74 -2518.07,-1049.61 -4020.49,-1049.61 -1516.28,0 -2867.94,356.93 -4054.99,1063.45 -1179.99,706.8 -2106.27,1680.89 -2778.57,2922.81 -665.51,1235.13 -995,2641.4 -981.15,4212.54 -13.86,1598.58 315.64,3018.96 981.15,4267.68 672.3,1248.71 1598.58,2229.86 2778.57,2950.24 1187.05,727.17 2538.71,1084.1 4054.99,1084.1z"/>
   <polygon class="fil0" points="81708.78,28976 81708.78,7473.53 84816.84,7473.53 84816.84,28976 "/>
   <polygon class="fil0" points="18575.86,10437.36 18575.86,7473.53 47231.6,7473.53 47231.6,10437.36 "/>
   <polygon class="fil0" points="22162.54,25786.99 22162.54,1847.4 25270.6,1847.4 25270.6,27266.59 "/>
   <path class="fil0" d="M8411.5 28919.77c-1838.71,0 -3485.37,-343.08 -4939.98,-1022.44 -1454.34,-679.09 -2607.17,-1591.79 -3471.51,-2723.7l2202.43 -1893.58c775.25,974.09 1708.32,1701.53 2792.42,2181.78 1077.04,487.04 2298.31,727.17 3663.56,727.17 665.78,0 1276.42,-75.51 1838.98,-226.54 555.5,-157.55 1036.02,-377.31 1440.76,-665.24 397.95,-288.2 706.53,-638.07 933.07,-1056.66 219.48,-411.8 329.22,-878.2 329.22,-1385.89 0,-898.84 -384.09,-1646.65 -1166.4,-2243.72 -370.51,-260.77 -885,-521.54 -1536.65,-775.25 -658.72,-253.71 -1454.62,-507.69 -2401.54,-768.46 -1523.06,-432.18 -2792.42,-864.34 -3807.8,-1317.17 -1015.38,-452.82 -1811.27,-981.15 -2387.68,-1598.58 -425.38,-494.11 -741.02,-1029.23 -946.65,-1605.65 -205.9,-569.35 -308.85,-1200.63 -308.85,-1886.78 0,-892.06 185.25,-1708.32 562.55,-2449.34 377.31,-741.02 905.64,-1385.89 1585,-1941.66 672.3,-555.76 1468.2,-981.15 2380.62,-1276.15 912.7,-295 1900.64,-438.97 2970.89,-438.97 1015.38,0 2023.96,137.18 3018.96,418.32 994.74,281.42 1914.22,686.15 2764.99,1207.7 850.76,521.27 1577.94,1131.91 2181.78,1831.92l-1893.85 2078.83c-535.13,-569.62 -1118.33,-1063.45 -1749.34,-1495.9 -631.28,-438.96 -1296.79,-775.25 -2003.59,-1015.38 -699.74,-240.12 -1420.12,-356.66 -2154.35,-356.66 -658.44,0 -1269.08,75.52 -1831.64,226.27 -556.04,151.03 -1029.23,377.57 -1427.18,672.57 -391.16,301.79 -700.01,651.66 -912.7,1056.67 -212.69,411.53 -322.43,864.34 -322.43,1358.45 13.86,397.67 102.95,761.4 260.77,1090.89 157.82,336.01 391.16,631.01 713.59,891.78 384.09,301.78 926.28,583.2 1619.22,850.76 699.74,260.77 1571.15,528.33 2613.96,802.68 1207.42,315.65 2229.86,644.87 3066.77,995.01 843.97,343.08 1543.98,747.81 2092.69,1214.21 720.38,535.12 1241.92,1159.62 1564.35,1873.21 329.22,713.59 487.04,1529.85 487.04,2435.49 0,1207.69 -336.01,2277.94 -1015.38,3218.08 -679.36,939.86 -1605.37,1673.82 -2785.63,2209.22 -1179.99,535.12 -2517.8,802.68 -4020.49,802.68z"/>
   <polygon class="fil0" points="99411.05,40643.87 99411.05,37423.35 112262.44,37423.35 112262.44,40643.87 "/>
   <polygon class="fil0" points="103010.77,59638.86 103010.77,31310.45 106388.03,31310.45 106388.03,61265.96 "/>
   <path class="fil0" d="M86811.74 61234.18c-2318.69,0 -4383.67,-506.87 -6187.61,-1528.23 -1796.6,-1021.08 -3213.19,-2437.66 -4234.27,-4241.87 -1014.02,-1803.94 -1528.5,-3891.2 -1528.5,-6262.04 0,-1803.94 290.92,-3451.68 864.89,-4942.42 566.64,-1491.01 1364.16,-2788.34 2385.52,-3891.46 1021.35,-1096.05 2243.98,-1953.34 3675.24,-2557.19 1431.52,-603.85 2989.36,-902.1 4666.71,-902.1 1573.05,0 3004.3,275.98 4308.96,835 1304.67,559.03 2423,1341.88 3354.71,2348.3 931.98,1006.41 1640.14,2191.83 2117.14,3563.32 484.6,1371.76 708.43,2877.72 663.61,4517.86l-44.82 1572.77 -19494.53 0 -491.93 -2832.62 17436.88 0 -834.74 782.86 0 -1073.78c-44.82,-1088.18 -350.41,-2132.08 -924.65,-3123.55 -573.97,-991.48 -1379.1,-1803.94 -2415.39,-2437.66 -1036.02,-633.73 -2266.26,-946.66 -3697.51,-946.66 -1655.08,0 -3093.67,342.81 -4308.97,1021.08 -1222.63,678.55 -2161.95,1677.36 -2832.89,2982.03 -663.34,1312 -998.81,2929.87 -998.81,4860.66 0,1841.42 357.74,3444.07 1073.5,4800.9 715.49,1364.16 1744.45,2415.39 3086.33,3153.43 1334.28,745.37 2929.6,1110.72 4785.96,1110.72 1133.27,0 2243.99,-179.01 3324.83,-551.69 1081.11,-372.69 2281.2,-1110.73 3600.81,-2221.45l1722.17 2430.33c-678.54,670.94 -1505.95,1274.79 -2460.21,1803.94 -961.86,529.42 -2005.5,946.92 -3131.16,1259.85 -1125.66,313.19 -2281.2,469.66 -3481.29,469.66z"/>
   <path class="fil0" d="M39756.7 61234.18c-2318.41,0 -4383.4,-506.87 -6187.6,-1528.23 -1796.61,-1021.08 -3212.92,-2437.66 -4234.27,-4241.87 -1013.75,-1803.94 -1528.22,-3891.2 -1528.22,-6262.04 0,-1803.94 290.65,-3451.68 864.62,-4942.42 566.63,-1491.01 1364.43,-2788.34 2385.51,-3891.46 1021.63,-1096.05 2243.99,-1953.34 3675.51,-2557.19 1431.26,-603.85 2989.36,-902.1 4666.71,-902.1 1573.05,0 3004.3,275.98 4308.97,835 1304.4,559.03 2422.73,1341.88 3354.71,2348.3 931.71,1006.41 1639.87,2191.83 2117.14,3563.32 484.6,1371.76 708.15,2877.72 663.61,4517.86l-44.82 1572.77 -19494.53 0 -492.21 -2832.62 17437.15 0 -835 782.86 0 -1073.78c-44.83,-1088.18 -350.41,-2132.08 -924.38,-3123.55 -573.97,-991.48 -1379.1,-1803.94 -2415.39,-2437.66 -1036.3,-633.73 -2266.27,-946.66 -3697.51,-946.66 -1655.08,0 -3093.94,342.81 -4308.97,1021.08 -1222.63,678.55 -2161.96,1677.36 -2832.9,2982.03 -663.61,1312 -999.08,2929.87 -999.08,4860.66 0,1841.42 358.02,3444.07 1073.51,4800.9 715.76,1364.16 1744.45,2415.39 3086.33,3153.43 1334.55,745.37 2929.87,1110.72 4786.23,1110.72 1133,0 2243.72,-179.01 3324.83,-551.69 1080.84,-372.69 2281.21,-1110.73 3600.54,-2221.45l1722.18 2430.33c-678.55,670.94 -1505.95,1274.79 -2460.21,1803.94 -961.59,529.42 -2005.22,946.92 -3130.88,1259.85 -1125.67,313.19 -2281.21,469.66 -3481.57,469.66z"/>
   <polygon class="fil0" points="73507.53,28940.41 73507.53,0 76615.32,1449.18 76615.32,28940.41 "/>
   <path class="fil0" d="M65997.6 29060.75c-2046.51,0 -3868.37,-462.05 -5466.14,-1392.95 -1597.77,-930.9 -2851.91,-2211.66 -3769.5,-3842.3 -917.59,-1630.63 -1379.91,-3492.16 -1379.91,-5578.33 0,-2072.86 462.32,-3914.82 1379.91,-5525.62 917.58,-1610.81 2171.73,-2878.26 3769.5,-3802.64 1597.77,-917.58 3419.63,-1379.64 5466.14,-1379.64 2033.47,0 3849.08,462.05 5446.58,1379.64 1597.49,924.38 2851.91,2191.83 3762.98,3802.64 911.07,1610.8 1366.6,3452.77 1366.6,5525.62 0,2086.17 -455.54,3947.69 -1366.6,5578.33 -911.07,1630.64 -2165.49,2911.4 -3762.98,3842.3 -1597.5,930.89 -3413.11,1392.95 -5446.58,1392.95zm0 -2825.56c1445.92,0 2739.72,-343.35 3868.65,-1043.09 1135.71,-693.21 2026.95,-1637.15 2667.2,-2838.6 647.04,-1201.72 957.24,-2568.32 950.72,-4106.33 6.52,-1524.96 -303.69,-2878.53 -950.72,-4073.18 -640.25,-1194.93 -1531.49,-2125.83 -2667.2,-2806 -1128.93,-673.39 -2422.73,-1009.95 -3868.65,-1009.95 -1458.96,0 -2759.28,343.35 -3901.51,1023.26 -1135.44,679.9 -2026.68,1617.32 -2673.72,2812.52 -640.25,1188.14 -957.25,2541.43 -943.94,4053.36 -13.31,1538.01 303.69,2904.61 943.94,4106.33 647.04,1201.45 1538.27,2145.39 2673.72,2838.6 1142.23,699.74 2442.55,1043.09 3901.51,1043.09z"/>
   <path class="fil0" d="M33698.67 12690.31l3308.53 0 0 4585.23c0,2395.29 132.01,4044.93 389.25,4948.94 389.25,1286.74 888.52,2069.32 1977.24,2821.76 1088.72,745.64 2388.5,1121.58 3899.62,1121.58 1504.59,0 2784.54,-369.42 3833.6,-1095.24 1049.33,-725.81 1541.81,-1449.18 1944.37,-2637.05 270.55,-811.65 402.57,-2533.83 402.57,-5160.01l0 -9825.09 3348.19 0 0 10326.53c0,2896.73 -220.03,5080.96 -892.87,6552.41 -679.9,1471.45 -2045.96,3086.33 -3405.24,3917.81 -1359.26,831.21 -3184.93,1247.09 -5230.63,1247.09 -2052.22,0 -3994.42,-415.87 -5367,-1247.09 -1372.3,-831.48 -2512.09,-2459.67 -3191.45,-3944.16 -673.12,-1491.29 -1016.19,-3728.21 -1016.19,-6717.3l0 -4895.43z"/>
   <polygon class="fil0" points="22136.73,61282.53 22136.73,29849.31 25244.53,31350.91 25244.53,61282.53 "/>
   <path class="fil0" d="M13323.5 61452.85c-2289.08,0 -4326.9,-516.65 -6113.72,-1557.84 -1786.82,-1040.91 -3189.83,-2473.52 -4216.07,-4297.28 -1026.24,-1823.77 -1543.17,-3905.86 -1543.17,-6239.22 0,-2318.42 516.92,-4378.51 1543.17,-6180 1026.24,-1801.49 2429.24,-3219.16 4216.07,-4253.01 1786.82,-1026.24 3824.64,-1543.16 6113.72,-1543.16 2274.14,0 4304.62,516.92 6091.44,1543.16 1786.82,1033.85 3189.83,2451.52 4208.74,4253.01 1018.91,1801.5 1528.5,3861.58 1528.5,6180 0,2333.35 -509.59,4415.45 -1528.5,6239.22 -1018.91,1823.77 -2421.91,3256.37 -4208.74,4297.28 -1786.82,1041.18 -3817.3,1557.84 -6091.44,1557.84zm0 -3159.94c1617.05,0 3064.06,-384.1 4326.9,-1166.68 1269.9,-775.25 2266.8,-1831.1 2982.84,-3174.88 723.64,-1344.06 1070.79,-2872.29 1063.45,-4592.83 7.34,-1705.61 -339.81,-3219.16 -1063.45,-4555.62 -716.03,-1336.45 -1712.94,-2377.63 -2982.84,-3138.21 -1262.84,-752.98 -2709.85,-1129.46 -4326.9,-1129.46 -1631.72,0 -3086.33,383.82 -4363.84,1144.4 -1269.9,760.59 -2266.8,1809.1 -2990.45,3145.55 -716.03,1328.85 -1070.52,2842.68 -1055.85,4533.34 -14.67,1720.54 339.82,3248.77 1055.85,4592.83 723.64,1343.79 1720.55,2399.63 2990.45,3174.88 1277.51,782.58 2732.12,1166.68 4363.84,1166.68z"/>
   <polygon class="fil0" points="50348.62,36780.11 53719.09,36780.11 61940.98,54681.22 70100.93,36780.11 73486.89,36780.11 62234.07,61368.37 61670.97,61368.37 "/>
  </g>
 </g>
</svg>
